<?xml version="1.0" standalone="no"?><!DOCTYPE svg PUBLIC "-//W3C//DTD SVG 1.1//EN" "http://www.w3.org/Graphics/SVG/1.1/DTD/svg11.dtd"><svg class="icon" width="200px" height="200px" viewBox="150 75 1025 874" version="1.1" xmlns="http://www.w3.org/2000/svg"><path d="M1159.529412 90.352941H165.647059c-42.164706 0-75.294118 33.129412-75.294118 73.788235V858.352941c0 42.164706 33.129412 75.294118 75.294118 75.294118h993.882353c40.658824 0 75.294118-33.129412 75.294117-73.788235V164.141176C1234.823529 123.482353 1201.694118 90.352941 1159.529412 90.352941z" fill="#009BF1" /><path d="M954.729412 501.458824c1.505882-25.6 9.035294-37.647059 22.588235-37.647059s19.576471 12.047059 21.082353 37.647059h-43.670588z m96.37647 15.058823c0-28.611765-6.023529-51.2-18.070588-66.258823-12.047059-16.564706-31.623529-24.094118-55.717647-24.094118-49.694118 0-79.811765 36.141176-79.811765 93.364706 0 31.623529 7.529412 55.717647 24.094118 70.77647 15.058824 13.552941 34.635294 21.082353 61.741176 21.082353 24.094118 0 48.188235-6.023529 61.741177-15.058823l-6.023529-40.658824c-13.552941 7.529412-31.623529 12.047059-49.694118 12.047059-10.541176 0-19.576471-3.011765-24.094118-7.529412-6.023529-4.517647-9.035294-13.552941-10.541176-25.6h96.37647v-18.070588z m-231.905882 37.647059c-4.517647 9.035294-12.047059 13.552941-21.082353 13.552941-6.023529 0-10.541176-1.505882-15.058823-3.011765v-84.329411c10.541176-10.541176 18.070588-10.541176 22.588235-10.541177 15.058824 0 22.588235 15.058824 22.588235 46.682353-1.505882 15.058824-3.011765 28.611765-9.035294 37.647059z m48.188235-109.929412c-10.541176-13.552941-24.094118-19.576471-42.164706-19.57647-16.564706 0-31.623529 7.529412-45.17647 21.082352l-3.011765-18.070588h-51.2v243.952941l58.729412-9.035294v-57.223529c9.035294 3.011765 18.070588 4.517647 25.6 4.517647 15.058824 0 36.141176-3.011765 52.705882-21.082353 15.058824-16.564706 24.094118-42.164706 24.094118-76.8-1.505882-30.117647-7.529412-52.705882-19.576471-67.764706z m-222.870588-15.058823h58.729412v177.694117h-58.729412V429.176471z m28.611765-18.070589c16.564706 0 30.117647-13.552941 30.117647-30.117647s-13.552941-30.117647-30.117647-30.117647-30.117647 13.552941-30.117647 30.117647 13.552941 30.117647 30.117647 30.117647z m-54.211765 15.058824c-16.564706 0-30.117647 9.035294-34.635294 24.094118l-3.011765-21.082353h-51.2v177.694117H587.294118v-115.952941c7.529412-9.035294 18.070588-12.047059 31.623529-12.047059h10.541177v-52.705882h-10.541177z m-111.435294 45.17647l7.529412-42.164705h-37.647059v-51.2l-49.694118 7.529411-7.529412 43.670589-18.070588 3.011764-6.023529 39.152941h24.094117v82.82353c0 21.082353 6.023529 36.141176 16.564706 45.17647 9.035294 7.529412 24.094118 10.541176 42.164706 10.541177 15.058824 0 24.094118-3.011765 30.117647-4.517647v-45.176471c-3.011765 1.505882-12.047059 3.011765-16.564706 3.011765-12.047059 0-16.564706-6.023529-16.564705-18.070588v-73.788236h31.623529z m-165.647059 24.094118c-16.564706-6.023529-27.105882-10.541176-27.105882-18.070588 0-6.023529 6.023529-10.541176 15.058823-10.541177 18.070588 0 36.141176 6.023529 48.188236 12.047059l7.529411-42.164706c-10.541176-4.517647-30.117647-12.047059-57.223529-12.047058-19.576471 0-36.141176 4.517647-48.188235 15.058823-12.047059 10.541176-18.070588 24.094118-18.070589 40.658824 0 31.623529 19.576471 45.176471 51.2 55.717647 21.082353 7.529412 27.105882 12.047059 27.105883 19.57647s-6.023529 12.047059-18.070588 12.047059c-15.058824 0-39.152941-7.529412-55.717648-16.564706l-7.529411 42.164706c13.552941 7.529412 39.152941 15.058824 64.752941 15.058824 21.082353 0 37.647059-4.517647 49.694118-13.552942 13.552941-10.541176 19.576471-25.6 19.57647-43.670588 0-30.117647-19.576471-43.670588-51.2-55.717647z" fill="#FFFFFF" /></svg>